<svg width="929" height="278" viewBox="0 0 929 278" fill="none" xmlns="http://www.w3.org/2000/svg">
<mask id="path-1-outside-1_407_2" maskUnits="userSpaceOnUse" x="3" y="57" width="916" height="220" fill="black">
<rect fill="white" x="3" y="57" width="916" height="220"/>
<path d="M27.776 223V106.84C27.776 84.568 38.336 67.288 65.216 67.288C73.664 67.288 80.96 69.016 85.76 70.744L80.384 91.864C76.736 90.328 72.704 89.368 69.056 89.368C60.608 89.368 56 94.552 56 106.456V223H27.776ZM13.376 137.752V116.824L29.504 115.672H76.352V137.752H13.376ZM140.186 225.688C113.114 225.688 88.538 204.952 88.538 169.432C88.538 133.72 113.114 112.984 140.186 112.984C167.066 112.984 191.642 133.72 191.642 169.432C191.642 204.952 167.066 225.688 140.186 225.688ZM140.186 202.84C154.778 202.84 162.842 189.592 162.842 169.432C162.842 149.08 154.778 136.024 140.186 136.024C125.402 136.024 117.338 149.08 117.338 169.432C117.338 189.592 125.402 202.84 140.186 202.84ZM264.213 225.688C237.141 225.688 212.565 204.952 212.565 169.432C212.565 133.72 237.141 112.984 264.213 112.984C291.093 112.984 315.669 133.72 315.669 169.432C315.669 204.952 291.093 225.688 264.213 225.688ZM264.213 202.84C278.805 202.84 286.869 189.592 286.869 169.432C286.869 149.08 278.805 136.024 264.213 136.024C249.429 136.024 241.365 149.08 241.365 169.432C241.365 189.592 249.429 202.84 264.213 202.84ZM381.137 225.688C354.257 225.688 336.977 204.76 336.977 169.432C336.977 134.296 359.057 112.984 382.097 112.984C394.193 112.984 401.681 117.4 409.553 124.504L408.401 107.608V69.976H436.625V223H413.585L411.473 211.864H410.897C403.025 219.736 392.273 225.688 381.137 225.688ZM388.241 202.456C395.921 202.456 402.257 199.384 408.401 191.512V144.28C402.065 138.328 395.153 136.024 388.433 136.024C376.337 136.024 365.969 147.544 365.969 169.048C365.969 191.512 374.225 202.456 388.241 202.456ZM470.715 223V115.672H493.563L495.867 129.88H496.443C505.467 120.664 515.451 112.984 529.275 112.984C544.827 112.984 553.851 119.704 558.843 131.608C568.827 121.432 579.195 112.984 593.211 112.984C616.059 112.984 626.427 129.112 626.427 155.992V223H598.203V159.64C598.203 142.744 593.595 137.176 583.227 137.176C577.083 137.176 570.363 141.016 562.683 149.08V223H534.459V159.64C534.459 142.744 529.659 137.176 519.291 137.176C513.339 137.176 506.235 141.016 498.939 149.08V223H470.715ZM720.326 225.688C693.254 225.688 668.678 204.952 668.678 169.432C668.678 133.72 693.254 112.984 720.326 112.984C747.206 112.984 771.782 133.72 771.782 169.432C771.782 204.952 747.206 225.688 720.326 225.688ZM720.326 202.84C734.918 202.84 742.982 189.592 742.982 169.432C742.982 149.08 734.918 136.024 720.326 136.024C705.542 136.024 697.478 149.08 697.478 169.432C697.478 189.592 705.542 202.84 720.326 202.84ZM807.525 266.968C799.269 266.968 793.701 265.624 789.477 264.088L794.661 243.16C797.349 244.12 800.421 244.888 803.493 244.888C812.517 244.888 815.397 238.744 815.397 226.456V115.672H843.621V225.88C843.621 248.92 834.597 266.968 807.525 266.968ZM829.413 98.2C819.813 98.2 813.093 92.056 813.093 82.648C813.093 73.432 819.813 67.48 829.413 67.48C839.013 67.48 845.925 73.432 845.925 82.648C845.925 92.056 839.013 98.2 829.413 98.2ZM877.733 223V115.672H905.957V223H877.733ZM891.749 98.2C881.957 98.2 875.429 92.056 875.429 82.648C875.429 73.432 881.957 67.48 891.749 67.48C901.541 67.48 908.261 73.432 908.261 82.648C908.261 92.056 901.541 98.2 891.749 98.2Z"/>
</mask>
<path d="M27.776 223V106.84C27.776 84.568 38.336 67.288 65.216 67.288C73.664 67.288 80.96 69.016 85.76 70.744L80.384 91.864C76.736 90.328 72.704 89.368 69.056 89.368C60.608 89.368 56 94.552 56 106.456V223H27.776ZM13.376 137.752V116.824L29.504 115.672H76.352V137.752H13.376ZM140.186 225.688C113.114 225.688 88.538 204.952 88.538 169.432C88.538 133.72 113.114 112.984 140.186 112.984C167.066 112.984 191.642 133.72 191.642 169.432C191.642 204.952 167.066 225.688 140.186 225.688ZM140.186 202.84C154.778 202.84 162.842 189.592 162.842 169.432C162.842 149.08 154.778 136.024 140.186 136.024C125.402 136.024 117.338 149.08 117.338 169.432C117.338 189.592 125.402 202.84 140.186 202.84ZM264.213 225.688C237.141 225.688 212.565 204.952 212.565 169.432C212.565 133.72 237.141 112.984 264.213 112.984C291.093 112.984 315.669 133.72 315.669 169.432C315.669 204.952 291.093 225.688 264.213 225.688ZM264.213 202.84C278.805 202.84 286.869 189.592 286.869 169.432C286.869 149.08 278.805 136.024 264.213 136.024C249.429 136.024 241.365 149.08 241.365 169.432C241.365 189.592 249.429 202.84 264.213 202.84ZM381.137 225.688C354.257 225.688 336.977 204.76 336.977 169.432C336.977 134.296 359.057 112.984 382.097 112.984C394.193 112.984 401.681 117.4 409.553 124.504L408.401 107.608V69.976H436.625V223H413.585L411.473 211.864H410.897C403.025 219.736 392.273 225.688 381.137 225.688ZM388.241 202.456C395.921 202.456 402.257 199.384 408.401 191.512V144.28C402.065 138.328 395.153 136.024 388.433 136.024C376.337 136.024 365.969 147.544 365.969 169.048C365.969 191.512 374.225 202.456 388.241 202.456ZM470.715 223V115.672H493.563L495.867 129.88H496.443C505.467 120.664 515.451 112.984 529.275 112.984C544.827 112.984 553.851 119.704 558.843 131.608C568.827 121.432 579.195 112.984 593.211 112.984C616.059 112.984 626.427 129.112 626.427 155.992V223H598.203V159.64C598.203 142.744 593.595 137.176 583.227 137.176C577.083 137.176 570.363 141.016 562.683 149.08V223H534.459V159.64C534.459 142.744 529.659 137.176 519.291 137.176C513.339 137.176 506.235 141.016 498.939 149.08V223H470.715ZM720.326 225.688C693.254 225.688 668.678 204.952 668.678 169.432C668.678 133.72 693.254 112.984 720.326 112.984C747.206 112.984 771.782 133.72 771.782 169.432C771.782 204.952 747.206 225.688 720.326 225.688ZM720.326 202.84C734.918 202.84 742.982 189.592 742.982 169.432C742.982 149.08 734.918 136.024 720.326 136.024C705.542 136.024 697.478 149.08 697.478 169.432C697.478 189.592 705.542 202.84 720.326 202.84ZM807.525 266.968C799.269 266.968 793.701 265.624 789.477 264.088L794.661 243.16C797.349 244.12 800.421 244.888 803.493 244.888C812.517 244.888 815.397 238.744 815.397 226.456V115.672H843.621V225.88C843.621 248.92 834.597 266.968 807.525 266.968ZM829.413 98.2C819.813 98.2 813.093 92.056 813.093 82.648C813.093 73.432 819.813 67.48 829.413 67.48C839.013 67.48 845.925 73.432 845.925 82.648C845.925 92.056 839.013 98.2 829.413 98.2ZM877.733 223V115.672H905.957V223H877.733ZM891.749 98.2C881.957 98.2 875.429 92.056 875.429 82.648C875.429 73.432 881.957 67.48 891.749 67.48C901.541 67.48 908.261 73.432 908.261 82.648C908.261 92.056 901.541 98.2 891.749 98.2Z" fill="#FFAC33"/>
<path d="M27.776 223H17.776V233H27.776V223ZM85.76 70.744L95.451 73.2108L97.691 64.4109L89.1472 61.3351L85.76 70.744ZM80.384 91.864L76.5034 101.08L87.2095 105.588L90.075 94.3308L80.384 91.864ZM56 223V233H66V223H56ZM13.376 137.752H3.376V147.752H13.376V137.752ZM13.376 116.824L12.6635 106.849L3.376 107.513V116.824H13.376ZM29.504 115.672V105.672H29.1473L28.7915 105.697L29.504 115.672ZM76.352 115.672H86.352V105.672H76.352V115.672ZM76.352 137.752V147.752H86.352V137.752H76.352ZM37.776 223V106.84H17.776V223H37.776ZM37.776 106.84C37.776 97.108 40.1011 89.8468 44.0557 85.1645C47.7632 80.7748 54.0527 77.288 65.216 77.288V57.288C49.4993 57.288 37.0688 62.4411 28.7763 72.2595C20.7309 81.7852 17.776 94.3 17.776 106.84H37.776ZM65.216 77.288C72.361 77.288 78.5104 78.7624 82.3728 80.1529L89.1472 61.3351C83.4096 59.2696 74.967 57.288 65.216 57.288V77.288ZM76.069 68.2772L70.693 89.3972L90.075 94.3308L95.451 73.2108L76.069 68.2772ZM84.2646 82.6476C79.6797 80.7172 74.3204 79.368 69.056 79.368V99.368C71.0876 99.368 73.7923 99.9388 76.5034 101.08L84.2646 82.6476ZM69.056 79.368C62.6715 79.368 56.1226 81.4371 51.525 87.234C47.2954 92.5671 46 99.5031 46 106.456H66C66 101.505 67.0086 99.8969 67.195 99.6619C67.2244 99.6249 67.2053 99.6333 67.2836 99.6008C67.4298 99.5402 67.9457 99.368 69.056 99.368V79.368ZM46 106.456V223H66V106.456H46ZM56 213H27.776V233H56V213ZM23.376 137.752V116.824H3.376V137.752H23.376ZM14.0885 126.799L30.2165 125.647L28.7915 105.697L12.6635 106.849L14.0885 126.799ZM29.504 125.672H76.352V105.672H29.504V125.672ZM66.352 115.672V137.752H86.352V115.672H66.352ZM76.352 127.752H13.376V147.752H76.352V127.752ZM140.186 215.688C118.731 215.688 98.538 199.524 98.538 169.432H78.538C78.538 210.38 107.497 235.688 140.186 235.688V215.688ZM98.538 169.432C98.538 139.124 118.754 122.984 140.186 122.984V102.984C107.474 102.984 78.538 128.316 78.538 169.432H98.538ZM140.186 122.984C161.402 122.984 181.642 139.101 181.642 169.432H201.642C201.642 128.339 172.73 102.984 140.186 102.984V122.984ZM181.642 169.432C181.642 199.548 161.425 215.688 140.186 215.688V235.688C172.707 235.688 201.642 210.356 201.642 169.432H181.642ZM140.186 212.84C151.026 212.84 159.75 207.683 165.338 199.195C170.631 191.157 172.842 180.643 172.842 169.432H152.842C152.842 178.381 151.021 184.571 148.634 188.197C146.542 191.373 143.938 192.84 140.186 192.84V212.84ZM172.842 169.432C172.842 158.143 170.638 147.612 165.328 139.581C159.711 131.086 150.972 126.024 140.186 126.024V146.024C143.992 146.024 146.581 147.49 148.644 150.611C151.014 154.196 152.842 160.369 152.842 169.432H172.842ZM140.186 126.024C129.353 126.024 120.557 131.042 114.892 139.557C109.541 147.6 107.338 158.145 107.338 169.432H127.338C127.338 160.367 129.167 154.208 131.544 150.635C133.607 147.534 136.235 146.024 140.186 146.024V126.024ZM107.338 169.432C107.338 180.64 109.548 191.169 114.882 199.219C120.519 207.727 129.299 212.84 140.186 212.84V192.84C136.289 192.84 133.645 191.329 131.554 188.173C129.16 184.559 127.338 178.384 127.338 169.432H107.338ZM264.213 215.688C242.759 215.688 222.565 199.524 222.565 169.432H202.565C202.565 210.38 231.524 235.688 264.213 235.688V215.688ZM222.565 169.432C222.565 139.124 242.782 122.984 264.213 122.984V102.984C231.501 102.984 202.565 128.316 202.565 169.432H222.565ZM264.213 122.984C285.429 122.984 305.669 139.101 305.669 169.432H325.669C325.669 128.339 296.758 102.984 264.213 102.984V122.984ZM305.669 169.432C305.669 199.548 285.453 215.688 264.213 215.688V235.688C296.734 235.688 325.669 210.356 325.669 169.432H305.669ZM264.213 212.84C275.053 212.84 283.777 207.683 289.366 199.195C294.658 191.157 296.869 180.643 296.869 169.432H276.869C276.869 178.381 275.049 184.571 272.661 188.197C270.57 191.373 267.966 192.84 264.213 192.84V212.84ZM296.869 169.432C296.869 158.143 294.665 147.612 289.355 139.581C283.738 131.086 275 126.024 264.213 126.024V146.024C268.019 146.024 270.609 147.49 272.672 150.611C275.042 154.196 276.869 160.369 276.869 169.432H296.869ZM264.213 126.024C253.38 126.024 244.585 131.042 238.92 139.557C233.569 147.6 231.365 158.145 231.365 169.432H251.365C251.365 160.367 253.194 154.208 255.571 150.635C257.634 147.534 260.263 146.024 264.213 146.024V126.024ZM231.365 169.432C231.365 180.64 233.576 191.169 238.909 199.219C244.546 207.727 253.327 212.84 264.213 212.84V192.84C260.316 192.84 257.673 191.329 255.582 188.173C253.187 184.559 251.365 178.384 251.365 169.432H231.365ZM409.553 124.504L402.853 131.928L421.212 148.495L419.53 123.824L409.553 124.504ZM408.401 107.608H398.401V107.949L398.424 108.288L408.401 107.608ZM408.401 69.976V59.976H398.401V69.976H408.401ZM436.625 69.976H446.625V59.976H436.625V69.976ZM436.625 223V233H446.625V223H436.625ZM413.585 223L403.76 224.863L405.303 233H413.585V223ZM411.473 211.864L421.298 210.001L419.755 201.864H411.473V211.864ZM410.897 211.864V201.864H406.755L403.826 204.793L410.897 211.864ZM408.401 191.512L416.284 197.665L418.401 194.953V191.512H408.401ZM408.401 144.28H418.401V139.954L415.248 136.992L408.401 144.28ZM381.137 215.688C370.54 215.688 362.461 211.69 356.801 204.58C350.937 197.214 346.977 185.588 346.977 169.432H326.977C326.977 188.604 331.657 205.106 341.153 217.036C350.853 229.222 364.854 235.688 381.137 235.688V215.688ZM346.977 169.432C346.977 138.399 365.9 122.984 382.097 122.984V102.984C352.214 102.984 326.977 130.193 326.977 169.432H346.977ZM382.097 122.984C390.919 122.984 396.124 125.855 402.853 131.928L416.253 117.08C407.238 108.945 397.467 102.984 382.097 102.984V122.984ZM419.53 123.824L418.378 106.928L398.424 108.288L399.576 125.184L419.53 123.824ZM418.401 107.608V69.976H398.401V107.608H418.401ZM408.401 79.976H436.625V59.976H408.401V79.976ZM426.625 69.976V223H446.625V69.976H426.625ZM436.625 213H413.585V233H436.625V213ZM423.41 221.137L421.298 210.001L401.648 213.727L403.76 224.863L423.41 221.137ZM411.473 201.864H410.897V221.864H411.473V201.864ZM403.826 204.793C397.156 211.462 388.801 215.688 381.137 215.688V235.688C395.745 235.688 408.894 228.01 417.968 218.935L403.826 204.793ZM388.241 212.456C399.467 212.456 408.552 207.572 416.284 197.665L400.518 185.359C395.962 191.196 392.375 192.456 388.241 192.456V212.456ZM418.401 191.512V144.28H398.401V191.512H418.401ZM415.248 136.992C407.029 129.271 397.658 126.024 388.433 126.024V146.024C392.648 146.024 397.101 147.385 401.554 151.568L415.248 136.992ZM388.433 126.024C378.925 126.024 370.429 130.651 364.615 138.539C358.918 146.269 355.969 156.786 355.969 169.048H375.969C375.969 159.806 378.204 153.811 380.715 150.405C383.109 147.157 385.845 146.024 388.433 146.024V126.024ZM355.969 169.048C355.969 181.245 358.166 191.934 363.612 199.846C369.453 208.332 378.234 212.456 388.241 212.456V192.456C384.232 192.456 381.877 191.108 380.086 188.506C377.9 185.33 375.969 179.315 375.969 169.048H355.969ZM470.715 223H460.715V233H470.715V223ZM470.715 115.672V105.672H460.715V115.672H470.715ZM493.563 115.672L503.435 114.071L502.072 105.672H493.563V115.672ZM495.867 129.88L485.996 131.481L487.358 139.88H495.867V129.88ZM496.443 129.88V139.88H500.647L503.589 136.876L496.443 129.88ZM558.843 131.608L549.622 135.475L555.442 149.354L565.982 138.611L558.843 131.608ZM626.427 223V233H636.427V223H626.427ZM598.203 223H588.203V233H598.203V223ZM562.683 149.08L555.442 142.183L552.683 145.08V149.08H562.683ZM562.683 223V233H572.683V223H562.683ZM534.459 223H524.459V233H534.459V223ZM498.939 149.08L491.524 142.371L488.939 145.228V149.08H498.939ZM498.939 223V233H508.939V223H498.939ZM480.715 223V115.672H460.715V223H480.715ZM470.715 125.672H493.563V105.672H470.715V125.672ZM483.692 117.273L485.996 131.481L505.739 128.279L503.435 114.071L483.692 117.273ZM495.867 139.88H496.443V119.88H495.867V139.88ZM503.589 136.876C512.156 128.126 519.656 122.984 529.275 122.984V102.984C511.247 102.984 498.779 113.202 489.298 122.884L503.589 136.876ZM529.275 122.984C535.601 122.984 539.71 124.339 542.53 126.191C545.331 128.03 547.71 130.917 549.622 135.475L568.065 127.741C564.985 120.395 560.356 113.97 553.509 109.473C546.681 104.989 538.502 102.984 529.275 102.984V122.984ZM565.982 138.611C575.825 128.579 583.625 122.984 593.211 122.984V102.984C574.766 102.984 561.83 114.285 551.705 124.605L565.982 138.611ZM593.211 122.984C602.005 122.984 607.077 125.916 610.338 130.341C613.989 135.295 616.427 143.575 616.427 155.992H636.427C636.427 141.529 633.682 128.305 626.437 118.475C618.802 108.116 607.266 102.984 593.211 102.984V122.984ZM616.427 155.992V223H636.427V155.992H616.427ZM626.427 213H598.203V233H626.427V213ZM608.203 223V159.64H588.203V223H608.203ZM608.203 159.64C608.203 150.811 607.109 142.511 602.801 136.345C597.801 129.188 590.273 127.176 583.227 127.176V147.176C584.985 147.176 585.807 147.421 586.102 147.543C586.249 147.604 586.28 147.618 586.406 147.799C586.994 148.641 588.203 151.573 588.203 159.64H608.203ZM583.227 127.176C572.866 127.176 563.659 133.555 555.442 142.183L569.925 155.977C577.068 148.477 581.301 147.176 583.227 147.176V127.176ZM552.683 149.08V223H572.683V149.08H552.683ZM562.683 213H534.459V233H562.683V213ZM544.459 223V159.64H524.459V223H544.459ZM544.459 159.64C544.459 150.753 543.302 142.439 538.908 136.27C533.857 129.179 526.328 127.176 519.291 127.176V147.176C521.046 147.176 521.896 147.42 522.227 147.556C522.417 147.635 522.477 147.676 522.619 147.874C523.217 148.713 524.459 151.631 524.459 159.64H544.459ZM519.291 127.176C509.188 127.176 499.593 133.452 491.524 142.371L506.355 155.789C512.878 148.58 517.491 147.176 519.291 147.176V127.176ZM488.939 149.08V223H508.939V149.08H488.939ZM498.939 213H470.715V233H498.939V213ZM720.326 215.688C698.871 215.688 678.678 199.524 678.678 169.432H658.678C658.678 210.38 687.637 235.688 720.326 235.688V215.688ZM678.678 169.432C678.678 139.124 698.894 122.984 720.326 122.984V102.984C687.614 102.984 658.678 128.316 658.678 169.432H678.678ZM720.326 122.984C741.542 122.984 761.782 139.101 761.782 169.432H781.782C781.782 128.339 752.87 102.984 720.326 102.984V122.984ZM761.782 169.432C761.782 199.548 741.565 215.688 720.326 215.688V235.688C752.847 235.688 781.782 210.356 781.782 169.432H761.782ZM720.326 212.84C731.166 212.84 739.889 207.683 745.478 199.195C750.771 191.157 752.982 180.643 752.982 169.432H732.982C732.982 178.381 731.161 184.571 728.774 188.197C726.682 191.373 724.078 192.84 720.326 192.84V212.84ZM752.982 169.432C752.982 158.143 750.778 147.612 745.468 139.581C739.851 131.086 731.112 126.024 720.326 126.024V146.024C724.132 146.024 726.721 147.49 728.784 150.611C731.154 154.196 732.982 160.369 732.982 169.432H752.982ZM720.326 126.024C709.493 126.024 700.697 131.042 695.032 139.557C689.681 147.6 687.478 158.145 687.478 169.432H707.478C707.478 160.367 709.307 154.208 711.684 150.635C713.747 147.534 716.375 146.024 720.326 146.024V126.024ZM687.478 169.432C687.478 180.64 689.688 191.169 695.022 199.219C700.659 207.727 709.439 212.84 720.326 212.84V192.84C716.429 192.84 713.785 191.329 711.694 188.173C709.3 184.559 707.478 178.384 707.478 169.432H687.478ZM789.477 264.088L779.771 261.684L777.609 270.413L786.06 273.486L789.477 264.088ZM794.661 243.16L798.025 233.743L787.613 230.024L784.955 240.756L794.661 243.16ZM815.397 115.672V105.672H805.397V115.672H815.397ZM843.621 115.672H853.621V105.672H843.621V115.672ZM807.525 256.968C800.47 256.968 796.057 255.84 792.895 254.69L786.06 273.486C791.346 275.408 798.069 276.968 807.525 276.968V256.968ZM799.184 266.492L804.368 245.564L784.955 240.756L779.771 261.684L799.184 266.492ZM791.298 252.577C794.572 253.747 798.848 254.888 803.493 254.888V234.888C801.995 234.888 800.127 234.493 798.025 233.743L791.298 252.577ZM803.493 254.888C806.855 254.888 810.351 254.318 813.626 252.684C817.002 250.999 819.577 248.464 821.398 245.435C824.74 239.88 825.397 232.893 825.397 226.456H805.397C805.397 229.183 805.234 231.239 804.962 232.764C804.687 234.306 804.361 234.959 804.26 235.125C804.234 235.168 804.397 234.937 804.695 234.788C804.892 234.69 804.644 234.888 803.493 234.888V254.888ZM825.397 226.456V115.672H805.397V226.456H825.397ZM815.397 125.672H843.621V105.672H815.397V125.672ZM833.621 115.672V225.88H853.621V115.672H833.621ZM833.621 225.88C833.621 236.363 831.523 244.086 827.775 248.998C824.408 253.412 818.629 256.968 807.525 256.968V276.968C823.494 276.968 835.763 271.5 843.676 261.13C851.208 251.258 853.621 238.437 853.621 225.88H833.621ZM829.413 88.2C826.753 88.2 825.256 87.3751 824.509 86.6718C823.822 86.0248 823.093 84.8622 823.093 82.648H803.093C803.093 89.8418 805.725 96.4552 810.798 101.232C815.811 105.953 822.474 108.2 829.413 108.2V88.2ZM823.093 82.648C823.093 80.6029 823.768 79.569 824.411 78.9795C825.14 78.3112 826.666 77.48 829.413 77.48V57.48C822.561 57.48 815.927 59.6248 810.896 64.2365C805.779 68.927 803.093 75.4771 803.093 82.648H823.093ZM829.413 77.48C832.169 77.48 833.778 78.318 834.573 79.0349C835.269 79.6622 835.925 80.693 835.925 82.648H855.925C855.925 75.387 853.126 68.8338 847.966 64.1811C842.905 59.618 836.257 57.48 829.413 57.48V77.48ZM835.925 82.648C835.925 84.7742 835.212 85.9324 834.474 86.6155C833.662 87.3674 832.084 88.2 829.413 88.2V108.2C836.343 108.2 843.021 105.961 848.065 101.288C853.183 96.5475 855.925 89.9298 855.925 82.648H835.925ZM877.733 223H867.733V233H877.733V223ZM877.733 115.672V105.672H867.733V115.672H877.733ZM905.957 115.672H915.957V105.672H905.957V115.672ZM905.957 223V233H915.957V223H905.957ZM887.733 223V115.672H867.733V223H887.733ZM877.733 125.672H905.957V105.672H877.733V125.672ZM895.957 115.672V223H915.957V115.672H895.957ZM905.957 213H877.733V233H905.957V213ZM891.749 88.2C888.952 88.2 887.489 87.3522 886.803 86.7005C886.167 86.097 885.429 84.9478 885.429 82.648H865.429C865.429 89.7562 867.955 96.3829 873.031 101.204C878.057 105.976 884.754 108.2 891.749 108.2V88.2ZM885.429 82.648C885.429 80.5156 886.116 79.496 886.705 78.9513C887.373 78.3333 888.865 77.48 891.749 77.48V57.48C884.841 57.48 878.173 59.6027 873.129 64.2647C868.006 69 865.429 75.5644 865.429 82.648H885.429ZM891.749 77.48C894.64 77.48 896.216 78.3395 896.95 79.0074C897.591 79.5898 898.261 80.6066 898.261 82.648H918.261C918.261 75.4734 915.571 68.9062 910.404 64.2086C905.33 59.5965 898.65 57.48 891.749 57.48V77.48ZM898.261 82.648C898.261 84.8589 897.536 86.0042 896.852 86.6434C896.1 87.3451 894.555 88.2 891.749 88.2V108.2C898.735 108.2 905.446 105.983 910.502 101.261C915.626 96.4758 918.261 89.8451 918.261 82.648H898.261Z" fill="#292F33" mask="url(#path-1-outside-1_407_2)"/>
<g clip-path="url(#clip0_407_2)">
<path d="M657.952 228.056C667.592 237.696 678.364 242.564 688.704 232.224C696.044 224.884 694.176 211.116 684.532 201.468C674.888 191.828 661.124 189.96 653.78 197.3C643.44 207.64 648.308 218.408 657.952 228.056ZM684.164 201.84C691.396 209.072 692.796 219.4 687.292 224.908C679.54 232.66 671.46 229.008 664.224 221.776C656.988 214.548 653.34 206.472 661.096 198.712C666.6 193.208 676.928 194.608 684.164 201.84ZM782.052 103.948C772.412 94.3041 761.644 89.4401 751.3 99.7801C743.96 107.12 745.828 120.888 755.472 130.532C765.116 140.176 778.876 142.044 786.224 134.7C796.564 124.36 791.696 113.588 782.052 103.948ZM755.84 130.16C748.608 122.928 747.208 112.604 752.712 107.096C760.464 99.3441 768.544 102.992 775.78 110.224C783.016 117.456 786.664 125.532 778.908 133.288C773.404 138.792 763.076 137.392 755.84 130.16Z" fill="#292F33"/>
<path d="M720 234C757.555 234 788 203.555 788 166C788 128.445 757.555 98 720 98C682.445 98 652 128.445 652 166C652 203.555 682.445 234 720 234Z" fill="#292F33"/>
<path d="M774.4 166C774.4 196.044 750.044 220.4 720 220.4C689.956 220.4 665.6 196.044 665.6 166C665.6 135.956 689.956 111.6 720 111.6C750.044 111.6 774.4 135.956 774.4 166Z" fill="#FFAC33"/>
<path d="M725.78 136.66L715.624 126.504C717.096 124.74 717.02 122.12 715.364 120.46C713.608 118.704 710.764 118.704 709.004 120.46C707.924 121.54 707.516 123.032 707.76 124.424C706.364 124.176 704.876 124.592 703.796 125.672C702.04 127.424 702.04 130.272 703.796 132.032C705.456 133.692 708.076 133.764 709.84 132.288L719.996 142.44L725.78 136.66Z" fill="#FFE8B6"/>
<path d="M758.676 175.344C761.568 172.452 768.88 160.04 758.76 149.92C751.708 142.868 746.024 143.272 735.452 140.652C731.116 139.204 725.46 133.992 724.016 132.548C722.568 133.992 723.076 139.28 723.076 139.28C723.076 139.28 716.776 139.792 715.328 141.236C716.772 142.68 723.492 149.036 724.668 152.016C727.828 162.048 727.468 167.152 734.524 174.2C746.088 185.764 755.788 178.236 758.676 175.344Z" fill="#C1694F"/>
<path d="M685.332 160C685.332 167.732 697.728 174 690 174C682.268 174 676 167.732 676 160C676 152.268 682.268 146 690 146C697.732 146 685.332 152.268 685.332 160ZM720.072 197.96C726.468 201.044 736.616 193.292 733.528 199.692C730.44 206.096 722.74 208.776 716.344 205.688C709.944 202.592 707.26 194.9 710.352 188.5C713.44 182.1 713.676 194.872 720.072 197.96Z" fill="#77B255"/>
<path d="M708 170C712.418 170 716 166.418 716 162C716 157.582 712.418 154 708 154C703.582 154 700 157.582 700 162C700 166.418 703.582 170 708 170Z" fill="#F4900C"/>
<path d="M744 194C746.209 194 748 192.209 748 190C748 187.791 746.209 186 744 186C741.791 186 740 187.791 740 190C740 192.209 741.791 194 744 194Z" fill="#F4900C"/>
<path d="M692 190C694.209 190 696 188.209 696 186C696 183.791 694.209 182 692 182C689.791 182 688 183.791 688 186C688 188.209 689.791 190 692 190Z" fill="#F4900C"/>
</g>
<defs>
<clipPath id="clip0_407_2">
<rect width="144" height="144" fill="white" transform="translate(648 94)"/>
</clipPath>
</defs>
</svg>
